# xmcd CD database file
#
# Track frame offsets:
#	150
#	24472
#	41287
#	66625
#	88925
#	105875
#	147910
#	180842
#	203892
#	229385
#	252877
#
# Disc length: 3736 seconds
#
# Revision: 0
# Processed by: cddbd v1.5.2PL0 Copyright (c) Steve Scherf et al.
# Submitted via: CDex 1.51
#
DISCID=900e960b
DTITLE=Filó Machado - Oxalá Perê
DYEAR=1900
DGENRE=Jazz
TTITLE0=Oxala Perê
TTITLE1=Menino de Ouro
TTITLE2=Origens II
TTITLE3=Por Amor
TTITLE4=Pause
TTITLE5=Jogral
TTITLE6=Odira-e
TTITLE7=Rainha da Noite
TTITLE8=Poeta Diferente
TTITLE9=Definição do Amor
TTITLE10=Ao Amigo Filó
EXTD=
EXTT0=
EXTT1=
EXTT2=
EXTT3=
EXTT4=
EXTT5=
EXTT6=
EXTT7=
EXTT8=
EXTT9=
EXTT10=
PLAYORDER=
